HIERARCHY
ROOT Pelvis
{
	OFFSET 0.000000 0.000000 0.000000
	CHANNELS 6 Xposition Yposition Zposition Xrotation Yrotation Zrotation
	JOINT LeftUpLeg_virtual
	{
		OFFSET 0.000000 0.000000 0.000000
		CHANNELS 3 Xrotation Yrotation Zrotation
		JOINT LeftUpLeg
		{
			OFFSET 18.735201 -5.666702 -4.541200
			CHANNELS 3 Xrotation Yrotation Zrotation
			JOINT LeftLeg
			{
				OFFSET -0.021200 -31.938179 0.493100
				CHANNELS 3 Xrotation Yrotation Zrotation
				JOINT LeftFoot
				{
					OFFSET 0.021200 -31.938179 -4.336299
					CHANNELS 3 Xrotation Yrotation Zrotation
					JOINT LeftToeBase
					{
						OFFSET 0.943001 -26.722000 15.023500
						CHANNELS 3 Xrotation Yrotation Zrotation
						End Site
						{
							OFFSET 0 0 0
						}
					}
				}
			}
		}
	}
	JOINT RightUpLeg_virtual
	{
		OFFSET 0.000000 0.000000 0.000000
		CHANNELS 3 Xrotation Yrotation Zrotation
		JOINT RightUpLeg
		{
			OFFSET -18.735201 -5.666702 -4.541200
			CHANNELS 3 Xrotation Yrotation Zrotation
			JOINT RightLeg
			{
				OFFSET 0.018946 -31.938133 0.493100
				CHANNELS 3 Xrotation Yrotation Zrotation
				JOINT RightFoot
				{
					OFFSET -0.018946 -31.938126 -4.336299
					CHANNELS 3 Xrotation Yrotation Zrotation
					JOINT RightToeBase
					{
						OFFSET -0.943001 -26.722004 15.023500
						CHANNELS 3 Xrotation Yrotation Zrotation
						End Site
						{
							OFFSET 0 0 0
						}
					}
				}
			}
		}
	}
	JOINT Hips_virtual
	{
		OFFSET 0.000000 0.000000 0.000000
		CHANNELS 3 Xrotation Yrotation Zrotation
		JOINT Hips
		{
			OFFSET -0.000000 -0.000000 -0.000000
			CHANNELS 3 Xrotation Yrotation Zrotation
			JOINT Spine
			{
				OFFSET 0.000000 10.199997 -0.299500
				CHANNELS 3 Xrotation Yrotation Zrotation
				JOINT Spine1
				{
					OFFSET 0.000000 11.900002 -1.516600
					CHANNELS 3 Xrotation Yrotation Zrotation
					JOINT Spine2
					{
						OFFSET 0.000000 13.600006 -2.842500
						CHANNELS 3 Xrotation Yrotation Zrotation
						JOINT Neck_virtual
						{
							OFFSET 0.000000 0.000000 0.000000
							CHANNELS 3 Xrotation Yrotation Zrotation
							JOINT Neck
							{
								OFFSET 0.000000 9.624100 -2.890100
								CHANNELS 3 Xrotation Yrotation Zrotation
								JOINT Head
								{
									OFFSET 0.000000 14.068802 -1.351900
									CHANNELS 3 Xrotation Yrotation Zrotation
									End Site
									{
										OFFSET 0 0 0
									}
								}
							}
						}
						JOINT LeftShoulder_virtual
						{
							OFFSET 0.000000 0.000000 0.000000
							CHANNELS 3 Xrotation Yrotation Zrotation
							JOINT LeftShoulder
							{
								OFFSET 15.263000 10.923401 -0.547700
								CHANNELS 3 Xrotation Yrotation Zrotation
								JOINT LeftArm
								{
									OFFSET 25.438599 -2.830597 -13.032500
									CHANNELS 3 Xrotation Yrotation Zrotation
									JOINT LeftForeArm
									{
										OFFSET 29.960503 0.000000 0.000000
										CHANNELS 3 Xrotation Yrotation Zrotation
										JOINT LeftHand
										{
											OFFSET 27.849251 0.000000 0.000000
											CHANNELS 3 Xrotation Yrotation Zrotation
											End Site
											{
												OFFSET 0 0 0
											}
										}
									}
								}
							}
						}
						JOINT RightShoulder_virtual
						{
							OFFSET 0.000000 0.000000 0.000000
							CHANNELS 3 Xrotation Yrotation Zrotation
							JOINT RightShoulder
							{
								OFFSET -15.263000 10.923401 -0.547700
								CHANNELS 3 Xrotation Yrotation Zrotation
								JOINT RightArm
								{
									OFFSET -25.438599 -2.830597 -13.032500
									CHANNELS 3 Xrotation Yrotation Zrotation
									JOINT RightForeArm
									{
										OFFSET -29.960503 0.000000 0.000000
										CHANNELS 3 Xrotation Yrotation Zrotation
										JOINT RightHand
										{
											OFFSET -27.849251 0.000000 0.000000
											CHANNELS 3 Xrotation Yrotation Zrotation
											End Site
											{
												OFFSET 0 0 0
											}
										}
									}
								}
							}
						}
					}
				}
			}
		}
	}
}
MOTION
Frames: 12
Frame Time: 0.03333333
-0.194972 87.329536 -1.037469 0.000000 0.000000 0.000000 1.536446 -47.156722 3.866104 -47.761232 -2.441764 19.602773 35.815326 -4.437640 -5.791429 -14.227496 -0.797542 -16.941579 0.000000 0.000000 0.000000 15.082856 -65.152198 7.853333 -27.362795 -23.191614 -23.620888 38.462520 12.285384 -2.202343 -14.190739 9.394436 16.117477 0.000000 0.000000 0.000000 -1.240503 -40.617865 0.597040 -0.143742 -48.915127 -2.908109 5.364880 -2.634375 -4.331589 2.522874 -0.733946 -2.921576 0.000000 0.000000 0.000000 0.028618 0.195792 -0.596151 -1.599442 1.204742 0.392043 0.000000 0.000000 0.000000 4.306689 0.144775 0.938864 3.652091 -2.797032 8.863464 -27.275466 7.632617 -14.361074 -3.311810 -15.717857 5.287478 0.000000 0.000000 0.000000 -0.192028 -0.946670 -3.373675 1.474389 5.069039 -11.323370 -36.442823 52.035294 38.512739 -179.023684 64.772801 175.315069 0.000000 0.000000 0.000000 
-0.218717 87.290886 -1.034778 0.000000 0.000000 0.000000 1.562404 -46.931712 3.941993 -47.785701 -2.408793 19.702821 35.718662 -4.474557 -5.820154 -14.289006 -0.804898 -17.041202 0.000000 0.000000 0.000000 15.229891 -65.494418 7.993209 -27.416161 -23.280129 -23.706161 38.389020 12.401982 -2.222472 -14.222144 9.538663 16.141163 0.000000 0.000000 0.000000 -1.308626 -40.873010 0.639043 -0.150078 -48.805807 -2.849790 5.361527 -2.642878 -4.362801 2.553961 -0.733382 -2.917817 0.000000 0.000000 0.000000 0.055175 0.176809 -0.586707 -1.569735 1.218014 0.399735 0.000000 0.000000 0.000000 4.337079 0.104406 0.895750 3.707711 -2.895860 8.938692 -27.493815 7.823799 -14.169070 -3.313306 -15.227336 5.163101 0.000000 0.000000 0.000000 -0.213977 -0.984325 -3.325219 1.539327 4.953822 -11.298870 -36.195672 52.307546 38.092214 -178.939331 64.447725 175.282912 0.000000 0.000000 0.000000 
-0.269736 87.218109 -1.036111 0.000000 0.000000 0.000000 1.614273 -46.505836 4.084008 -47.828693 -2.345208 19.890397 35.544735 -4.536226 -5.867541 -14.399999 -0.814149 -17.215992 0.000000 0.000000 0.000000 15.523143 -66.129174 8.289276 -27.519150 -23.447959 -23.852853 38.261285 12.606232 -2.251507 -14.275414 9.789897 16.190981 0.000000 0.000000 0.000000 -1.459888 -41.371733 0.707975 -0.145801 -48.572842 -2.761295 5.344350 -2.647130 -4.413976 2.609424 -0.731382 -2.910311 0.000000 0.000000 0.000000 0.097340 0.143800 -0.566404 -1.511702 1.240354 0.416181 0.000000 0.000000 0.000000 4.393077 0.031136 0.814695 3.813884 -3.094025 9.081567 -27.930629 8.170128 -13.796904 -3.318553 -14.336956 4.937079 0.000000 0.000000 0.000000 -0.250646 -1.051444 -3.232162 1.664181 4.750149 -11.240293 -35.799228 52.793011 37.342143 -178.770052 63.886953 175.213613 0.000000 0.000000 0.000000 
-0.351599 87.120667 -1.053037 0.000000 0.000000 0.000000 1.685405 -45.922862 4.271348 -47.885008 -2.255931 20.141784 35.325807 -4.603145 -5.918069 -14.540165 -0.816625 -17.427030 0.000000 0.000000 0.000000 15.952735 -66.970783 8.757203 -27.666830 -23.677703 -24.025146 38.105704 12.850780 -2.272708 -14.339021 10.086915 16.267974 0.000000 0.000000 0.000000 -1.713436 -42.085044 0.780406 -0.108312 -48.187087 -2.689223 5.300775 -2.630219 -4.467501 2.678081 -0.727612 -2.899005 0.000000 0.000000 0.000000 0.137379 0.104376 -0.533327 -1.429256 1.264965 0.442563 0.000000 0.000000 0.000000 4.467364 -0.062781 0.705753 3.961676 -3.388128 9.278627 -28.582369 8.607936 -13.270224 -3.334052 -13.202104 4.646701 0.000000 0.000000 0.000000 -0.289010 -1.135142 -3.101980 1.840051 4.499792 -11.134880 -35.412335 53.397289 36.419894 -178.518482 63.232061 175.100437 0.000000 0.000000 0.000000 
-0.463843 87.011932 -1.098017 0.000000 0.000000 0.000000 1.756641 -45.237139 4.472848 -47.957200 -2.148063 20.425334 35.097419 -4.655519 -5.957083 -14.686403 -0.803921 -17.635178 0.000000 0.000000 0.000000 16.486946 -67.918937 9.386148 -27.856015 -23.945530 -24.192964 37.940045 13.085363 -2.271826 -14.408796 10.364551 16.366626 0.000000 0.000000 0.000000 -2.076898 -42.958809 0.834985 -0.025139 -47.608505 -2.683962 5.226767 -2.582340 -4.506711 2.747730 -0.723714 -2.883773 0.000000 0.000000 0.000000 0.157081 0.065703 -0.486447 -1.329916 1.284887 0.478901 0.000000 0.000000 0.000000 4.553064 -0.164279 0.582826 4.139699 -3.765268 9.512373 -29.433915 9.060183 -12.630705 -3.370916 -12.002413 4.331914 0.000000 0.000000 0.000000 -0.313413 -1.222571 -2.945227 2.055595 4.243740 -10.976033 -35.195978 54.022760 35.506158 -178.194158 62.622986 174.938671 0.000000 0.000000 0.000000 
-0.600435 86.905777 -1.179598 0.000000 0.000000 0.000000 1.798588 -44.502121 4.652658 -48.055985 -2.029489 20.707066 34.889699 -4.679130 -5.975254 -14.818119 -0.771096 -17.812440 0.000000 0.000000 0.000000 17.062709 -68.879480 10.118254 -28.086312 -24.223700 -24.346440 37.764649 13.270054 -2.243407 -14.492164 10.571843 16.471599 0.000000 0.000000 0.000000 -2.535161 -43.911255 0.861658 0.095113 -46.799425 -2.786121 5.132510 -2.507206 -4.522270 2.808500 -0.723293 -2.864598 0.000000 0.000000 0.000000 0.143463 0.032421 -0.426813 -1.224341 1.295134 0.523246 0.000000 0.000000 0.000000 4.645526 -0.262836 0.461493 4.334901 -4.200665 9.762249 -30.448628 9.452601 -11.935925 -3.440665 -10.902489 4.025268 0.000000 0.000000 0.000000 -0.310184 -1.304233 -2.774661 2.298150 4.011383 -10.770518 -35.259018 54.592452 34.758143 -177.814522 62.154701 174.728397 0.000000 0.000000 0.000000 
-0.751743 86.811989 -1.298046 0.000000 0.000000 0.000000 1.783287 -43.760885 4.781091 -48.192732 -1.907380 20.958345 34.722257 -4.668320 -5.969538 -14.920808 -0.718493 -17.946493 0.000000 0.000000 0.000000 17.589885 -69.779227 10.849347 -28.358153 -24.483949 -24.499586 37.565282 13.381888 -2.192675 -14.604114 10.682105 16.559107 0.000000 0.000000 0.000000 -3.050386 -44.843826 0.865377 0.223699 -45.744775 -3.016783 5.039509 -2.419943 -4.514993 2.854856 -0.730329 -2.842003 0.000000 0.000000 0.000000 0.092205 0.006382 -0.358063 -1.123908 1.293681 0.571811 0.000000 0.000000 0.000000 4.742261 -0.351775 0.356044 4.533001 -4.660583 10.005691 -31.561259 9.729159 -11.254134 -3.547953 -10.023662 3.747089 0.000000 0.000000 0.000000 -0.271961 -1.374605 -2.604102 2.554499 3.818850 -10.540360 -35.632609 55.059856 34.276386 -177.403181 61.861221 174.475885 0.000000 0.000000 0.000000 
-0.908149 86.733521 -1.443368 0.000000 0.000000 0.000000 1.698613 -43.042708 4.845892 -48.369054 -1.787745 21.163090 34.602988 -4.626006 -5.941364 -14.987824 -0.651669 -18.038943 0.000000 0.000000 0.000000 17.974555 -70.572137 11.457281 -28.668828 -24.701770 -24.681602 37.324839 13.414888 -2.132952 -14.757617 10.693650 16.602848 0.000000 0.000000 0.000000 -3.573170 -45.665706 0.862505 0.323446 -44.470863 -3.372913 4.971691 -2.338811 -4.494368 2.885959 -0.747233 -2.817533 0.000000 0.000000 0.000000 0.008367 -0.012380 -0.285990 -1.037405 1.281116 0.619948 0.000000 0.000000 0.000000 4.841644 -0.427377 0.276704 4.719397 -5.109028 10.221202 -32.680222 9.863831 -10.652982 -3.685078 -9.428813 3.506160 0.000000 0.000000 0.000000 -0.199641 -1.430938 -2.447124 2.811752 3.673554 -10.318636 -36.277768 55.408448 34.093108 -176.987345 61.727507 174.194153 0.000000 0.000000 0.000000 
-1.062987 86.667580 -1.597114 0.000000 0.000000 0.000000 1.556379 -42.366533 4.857961 -48.570554 -1.676377 21.321257 34.529752 -4.561620 -5.894062 -15.020368 -0.579704 -18.100095 0.000000 0.000000 0.000000 18.154009 -71.237944 11.847601 -29.008858 -24.860832 -24.920505 37.036021 13.376261 -2.080225 -14.954638 10.623691 16.582386 0.000000 0.000000 0.000000 -4.058309 -46.320898 0.871777 0.363806 -43.050566 -3.828624 4.946649 -2.276809 -4.473661 2.904726 -0.773988 -2.793846 0.000000 0.000000 0.000000 -0.094863 -0.024639 -0.217277 -0.968540 1.259482 0.663432 0.000000 0.000000 0.000000 4.941925 -0.487110 0.228250 4.881096 -5.514043 10.393908 -33.702421 9.865367 -10.185233 -3.832528 -9.119331 3.303762 0.000000 0.000000 0.000000 -0.100762 -1.471968 -2.315511 3.058413 3.578901 -10.140709 -37.110388 55.646033 34.177164 -176.595265 61.714919 173.901848 0.000000 0.000000 0.000000 
-1.212716 86.609718 -1.737096 0.000000 0.000000 0.000000 1.389139 -41.747141 4.846905 -48.768623 -1.579659 21.445734 34.493917 -4.487925 -5.831211 -15.025716 -0.512582 -18.143175 0.000000 0.000000 0.000000 18.124225 -71.776108 11.991849 -29.360955 -24.956060 -25.227690 36.708572 13.281592 -2.047629 -15.182768 10.499507 16.490063 0.000000 0.000000 0.000000 -4.475375 -46.801457 0.905845 0.330259 -41.592348 -4.341650 4.971618 -2.238121 -4.464385 2.916374 -0.808907 -2.774283 0.000000 0.000000 0.000000 -0.199054 -0.031673 -0.157903 -0.915644 1.231042 0.699423 0.000000 0.000000 0.000000 5.041020 -0.528527 0.210393 5.008959 -5.851168 10.520644 -34.536633 9.772799 -9.877363 -3.965940 -9.043036 3.138030 0.000000 0.000000 0.000000 0.014576 -1.497744 -2.217518 3.285462 3.535152 -10.034262 -38.025664 55.797171 34.448715 -176.253810 61.784798 173.620895 0.000000 0.000000 0.000000 
-1.355013 86.558052 -1.843672 0.000000 0.000000 0.000000 1.237330 -41.198506 4.847921 -48.929430 -1.503793 21.554192 34.484013 -4.417552 -5.756391 -15.014339 -0.458594 -18.179698 0.000000 0.000000 0.000000 17.941951 -72.197996 11.935712 -29.702362 -24.993785 -25.591044 36.367984 13.150673 -2.042127 -15.418893 10.350274 16.333025 0.000000 0.000000 0.000000 -4.810314 -47.140292 0.967891 0.224885 -40.216260 -4.862825 5.044826 -2.220470 -4.472489 2.927078 -0.850087 -2.761958 0.000000 0.000000 0.000000 -0.284784 -0.035506 -0.111872 -0.873537 1.197529 0.726769 0.000000 0.000000 0.000000 5.136836 -0.549631 0.219365 5.099188 -6.104111 10.610841 -35.125566 9.642870 -9.727122 -4.065660 -9.113457 3.006316 0.000000 0.000000 0.000000 0.137828 -1.510288 -2.156437 3.486841 3.537184 -10.011959 -38.916082 55.895290 34.800613 -175.986135 61.909586 173.373574 0.000000 0.000000 0.000000 
-1.486259 86.515144 -1.904520 0.000000 0.000000 0.000000 1.134293 -40.732496 4.886703 -49.025103 -1.452382 21.659892 34.488255 -4.360188 -5.673878 -14.997051 -0.422537 -18.217076 0.000000 0.000000 0.000000 17.698526 -72.519834 11.773132 -30.010796 -24.988495 -25.978978 36.047218 13.004182 -2.064275 -15.637614 10.201356 16.129801 0.000000 0.000000 0.000000 -5.060093 -47.387511 1.054094 0.059654 -39.028295 -5.346142 5.159425 -2.220184 -4.497728 2.942720 -0.896560 -2.758809 0.000000 0.000000 0.000000 -0.336231 -0.039140 -0.080749 -0.836435 1.160052 0.745693 0.000000 0.000000 0.000000 5.227674 -0.550330 0.249784 5.153395 -6.265068 10.681817 -35.457056 9.533250 -9.710920 -4.123701 -9.236714 2.905203 0.000000 0.000000 0.000000 0.264122 -1.514135 -2.130096 3.659338 3.572389 -10.069559 -39.685055 55.974271 35.123596 -175.809233 62.071584 173.179706 0.000000 0.000000 0.000000 
